<svg xmlns="http://www.w3.org/2000/svg" xmlns:xlink="http://www.w3.org/1999/xlink" width="75" zoomAndPan="magnify" viewBox="0 0 375 374.999991" height="75" preserveAspectRatio="xMidYMid meet" version="1.0"><defs><g/><clipPath id="9066bf366e"><path d="M 186 6 L 367.980469 6 L 367.980469 287 L 186 287 Z M 186 6 " clip-rule="nonzero"/></clipPath><clipPath id="f6bd87ad51"><path d="M 5.730469 89 L 187 89 L 187 360.675781 L 5.730469 360.675781 Z M 5.730469 89 " clip-rule="nonzero"/></clipPath><clipPath id="0c1b39aadb"><path d="M 206 270 L 341 270 L 341 361 L 206 361 Z M 206 270 " clip-rule="nonzero"/></clipPath><clipPath id="7aff799e6d"><path d="M 295.996094 393.449219 L 195.949219 354.808594 L 242.964844 233.070312 L 343.015625 271.710938 Z M 295.996094 393.449219 " clip-rule="nonzero"/></clipPath><clipPath id="d58b6d90af"><path d="M 295.996094 393.449219 L 195.949219 354.808594 L 242.964844 233.070312 L 343.015625 271.710938 Z M 295.996094 393.449219 " clip-rule="nonzero"/></clipPath><clipPath id="243836b675"><path d="M 27 11 L 159 11 L 159 106 L 27 106 Z M 27 11 " clip-rule="nonzero"/></clipPath><clipPath id="973cda9374"><path d="M 66.863281 -18.449219 L 168.488281 15.824219 L 126.785156 139.480469 L 25.160156 105.207031 Z M 66.863281 -18.449219 " clip-rule="nonzero"/></clipPath><clipPath id="76ce22c055"><path d="M 66.863281 -18.449219 L 168.488281 15.824219 L 126.785156 139.480469 L 25.160156 105.207031 Z M 66.863281 -18.449219 " clip-rule="nonzero"/></clipPath></defs><g clip-path="url(#9066bf366e)"><path fill="#000000" d="M 186.828125 6.058594 L 189.859375 6.039062 L 191.378906 6.027344 L 192.894531 6.054688 L 195.929688 6.113281 L 198.960938 6.25 L 200.480469 6.316406 L 201.996094 6.425781 L 205.023438 6.640625 L 208.050781 6.925781 L 209.5625 7.074219 L 211.070312 7.257812 C 212.078125 7.382812 213.082031 7.5 214.089844 7.632812 L 217.097656 8.078125 C 217.597656 8.15625 218.101562 8.21875 218.601562 8.308594 L 220.101562 8.570312 L 221.605469 8.832031 C 222.105469 8.921875 222.605469 8.992188 223.101562 9.101562 C 225.089844 9.503906 227.085938 9.878906 229.0625 10.347656 L 230.546875 10.683594 L 231.289062 10.847656 L 232.03125 11.03125 L 234.984375 11.777344 C 250.832031 15.957031 265.816406 22.207031 279.9375 30.527344 C 281.683594 31.585938 283.4375 32.625 285.148438 33.738281 C 286.882812 34.820312 288.5625 35.976562 290.261719 37.113281 C 291.101562 37.6875 291.929688 38.289062 292.765625 38.875 L 294.015625 39.761719 L 295.246094 40.675781 C 296.054688 41.285156 296.886719 41.890625 297.699219 42.511719 L 300.113281 44.398438 C 303.308594 46.949219 306.445312 49.585938 309.453125 52.351562 L 310.589844 53.382812 C 310.964844 53.730469 311.332031 54.085938 311.703125 54.4375 L 313.925781 56.554688 C 315.371094 58.003906 316.84375 59.429688 318.238281 60.929688 C 329.648438 72.863281 339.222656 86.121094 346.960938 100.703125 C 354.652344 115.21875 360.53125 130.757812 364.113281 146.875 L 365.050781 151.421875 L 365.324219 152.945312 L 365.859375 155.992188 L 366.320312 159.054688 C 366.394531 159.566406 366.480469 160.074219 366.539062 160.589844 L 366.730469 162.125 C 366.851562 163.148438 366.984375 164.175781 367.089844 165.203125 L 367.378906 168.28125 C 367.421875 168.796875 367.484375 169.308594 367.511719 169.824219 L 367.609375 171.371094 C 367.671875 172.402344 367.75 173.429688 367.796875 174.460938 L 367.90625 177.554688 C 367.921875 178.070312 367.953125 178.585938 367.953125 179.101562 L 367.964844 180.652344 C 367.972656 181.683594 367.988281 182.714844 367.976562 183.746094 C 367.945312 187.875 367.738281 191.996094 367.402344 196.109375 C 367.066406 200.21875 366.574219 204.320312 365.929688 208.390625 C 365.289062 212.460938 364.496094 216.507812 363.554688 220.515625 C 362.613281 224.527344 361.546875 228.5 360.3125 232.417969 L 359.351562 235.355469 C 359.199219 235.839844 359.027344 236.328125 358.855469 236.8125 L 358.351562 238.273438 L 358.09375 238.996094 L 357.828125 239.71875 L 357.289062 241.164062 C 356.9375 242.125 356.558594 243.078125 356.179688 244.03125 C 353.15625 251.652344 349.574219 259 345.433594 266.074219 C 343.367188 269.59375 341.175781 273.023438 338.851562 276.371094 C 336.53125 279.710938 334.085938 282.957031 331.496094 286.074219 L 330.835938 285.605469 C 332.914062 282.144531 334.914062 278.65625 336.804688 275.113281 C 338.691406 271.574219 340.480469 267.984375 342.152344 264.359375 C 345.496094 257.117188 348.375 249.699219 350.789062 242.097656 C 351.089844 241.152344 351.394531 240.207031 351.667969 239.253906 L 352.09375 237.828125 L 352.304688 237.113281 L 352.503906 236.398438 C 352.761719 235.441406 353.042969 234.492188 353.296875 233.53125 L 354.042969 230.65625 C 354.992188 226.8125 355.835938 222.945312 356.542969 219.054688 C 357.246094 215.164062 357.851562 211.261719 358.308594 207.339844 L 358.632812 204.398438 C 358.730469 203.417969 358.8125 202.433594 358.902344 201.453125 L 358.972656 200.714844 L 359.027344 199.976562 L 359.132812 198.503906 C 359.167969 198.015625 359.210938 197.519531 359.234375 197.027344 L 359.3125 195.550781 L 359.398438 194.074219 C 359.425781 193.589844 359.4375 193.089844 359.457031 192.597656 L 359.539062 190.382812 L 359.550781 189.644531 L 359.605469 186.6875 L 359.605469 183.734375 C 359.550781 179.792969 359.460938 175.855469 359.179688 171.925781 L 359.085938 170.453125 C 359.058594 169.964844 359.007812 169.46875 358.96875 168.980469 L 358.71875 166.035156 C 358.679688 165.550781 358.617188 165.0625 358.558594 164.566406 L 358.394531 163.101562 L 358.234375 161.628906 C 358.179688 161.144531 358.109375 160.65625 358.046875 160.171875 L 357.667969 157.242188 L 357.246094 154.308594 L 357.023438 152.851562 L 356.769531 151.394531 L 356.25 148.476562 C 354.789062 140.707031 352.808594 133.070312 350.308594 125.570312 C 349.703125 123.6875 349.003906 121.84375 348.339844 119.976562 C 347.988281 119.054688 347.625 118.136719 347.265625 117.214844 L 346.730469 115.832031 L 346.152344 114.464844 C 344.65625 110.800781 342.960938 107.21875 341.203125 103.671875 C 326.960938 75.367188 304.816406 51.003906 277.824219 33.980469 C 271.058594 29.710938 264.035156 25.925781 256.753906 22.621094 L 255.390625 22 C 254.9375 21.785156 254.472656 21.601562 254.015625 21.402344 L 251.261719 20.226562 L 248.476562 19.113281 L 247.082031 18.558594 L 245.675781 18.039062 C 244.734375 17.695312 243.800781 17.339844 242.855469 17.003906 L 240.019531 16.035156 C 239.074219 15.699219 238.117188 15.410156 237.164062 15.105469 L 235.730469 14.652344 L 235.015625 14.425781 C 234.777344 14.351562 234.527344 14.285156 234.296875 14.214844 L 231.410156 13.378906 L 230.679688 13.1875 L 229.960938 12.996094 L 228.5 12.617188 C 226.570312 12.085938 224.613281 11.652344 222.667969 11.1875 C 222.183594 11.066406 221.695312 10.976562 221.199219 10.863281 L 219.722656 10.566406 L 218.25 10.257812 C 217.765625 10.152344 217.265625 10.074219 216.773438 9.980469 L 213.8125 9.429688 C 212.824219 9.269531 211.832031 9.117188 210.839844 8.957031 L 209.351562 8.722656 L 207.859375 8.519531 L 204.875 8.125 L 201.878906 7.800781 L 200.375 7.648438 L 198.875 7.527344 L 195.867188 7.277344 L 192.859375 7.117188 L 191.351562 7.03125 L 189.84375 6.984375 L 186.824219 6.886719 Z M 186.828125 6.058594 " fill-opacity="1" fill-rule="nonzero"/></g><g clip-path="url(#f6bd87ad51)"><path fill="#000000" d="M 186.828125 360.804688 L 183.875 360.824219 L 182.398438 360.835938 C 181.910156 360.835938 181.410156 360.820312 180.917969 360.8125 L 177.964844 360.753906 C 176.976562 360.726562 175.992188 360.671875 175.007812 360.632812 C 173.035156 360.566406 171.070312 360.394531 169.101562 360.265625 C 168.617188 360.238281 168.117188 360.179688 167.625 360.136719 L 166.152344 359.996094 C 165.171875 359.898438 164.1875 359.820312 163.207031 359.691406 L 160.265625 359.332031 C 159.78125 359.277344 159.292969 359.199219 158.808594 359.128906 L 157.347656 358.910156 C 155.390625 358.644531 153.445312 358.28125 151.5 357.9375 C 147.609375 357.203125 143.738281 356.394531 139.90625 355.398438 C 137.980469 354.9375 136.085938 354.378906 134.171875 353.851562 C 133.695312 353.722656 133.226562 353.566406 132.75 353.425781 L 131.332031 352.988281 L 129.910156 352.550781 C 129.4375 352.410156 128.96875 352.242188 128.5 352.085938 L 125.679688 351.144531 C 124.746094 350.820312 123.816406 350.472656 122.882812 350.136719 L 121.484375 349.628906 C 121.023438 349.453125 120.5625 349.269531 120.097656 349.089844 L 117.328125 348.007812 C 109.957031 345.019531 102.820312 341.550781 95.910156 337.613281 C 68.261719 321.894531 44.894531 298.5 29.121094 270.632812 L 28.371094 269.335938 L 26.226562 265.375 L 24.855469 262.703125 C 24.628906 262.257812 24.390625 261.816406 24.175781 261.367188 L 23.527344 260.015625 C 21.742188 256.421875 20.136719 252.753906 18.597656 249.046875 L 17.480469 246.257812 L 17.199219 245.558594 L 16.9375 244.851562 L 16.410156 243.441406 L 15.886719 242.03125 L 15.601562 241.335938 L 15.359375 240.621094 L 14.375 237.769531 C 13.125 233.957031 11.945312 230.113281 10.957031 226.214844 C 8.929688 218.417969 7.492188 210.511719 6.640625 202.5 C 6.234375 198.496094 5.929688 194.484375 5.828125 190.464844 L 5.785156 188.957031 L 5.761719 188.203125 C 5.761719 187.953125 5.761719 187.699219 5.761719 187.449219 L 5.746094 184.433594 C 5.730469 183.429688 5.777344 182.421875 5.808594 181.417969 L 5.90625 178.40625 C 6.578125 162.277344 9.511719 146.566406 14.707031 131.277344 C 17.285156 123.71875 20.410156 116.390625 24.074219 109.292969 L 25.484375 106.667969 L 26.1875 105.355469 C 26.425781 104.921875 26.652344 104.480469 26.910156 104.058594 L 28.421875 101.492188 C 28.925781 100.640625 29.421875 99.78125 29.945312 98.941406 C 31.011719 97.269531 32.089844 95.609375 33.167969 93.953125 C 34.304688 92.332031 35.4375 90.710938 36.59375 89.113281 L 37.28125 89.546875 C 36.398438 91.304688 35.5 93.050781 34.601562 94.789062 L 32.058594 100.082031 L 29.671875 105.429688 C 29.46875 105.871094 29.292969 106.328125 29.105469 106.78125 L 28.546875 108.125 L 27.4375 110.828125 C 24.574219 118.050781 22.15625 125.417969 20.179688 132.929688 C 16.25 147.910156 14.1875 163.140625 14 178.625 L 13.988281 181.503906 C 13.988281 182.464844 13.964844 183.421875 14.003906 184.382812 L 14.070312 187.261719 C 14.070312 187.503906 14.070312 187.75 14.085938 187.980469 L 14.121094 188.703125 L 14.253906 191.578125 L 14.285156 192.292969 L 14.335938 193.011719 L 14.527344 195.882812 C 14.558594 196.371094 14.589844 196.84375 14.640625 197.316406 L 14.898438 200.183594 C 14.9375 200.660156 14.976562 201.140625 15.035156 201.617188 C 15.847656 209.242188 17.039062 216.835938 18.75 224.324219 C 19.558594 228.078125 20.570312 231.789062 21.636719 235.484375 L 22.472656 238.238281 L 22.683594 238.929688 L 22.910156 239.613281 L 23.359375 240.984375 L 23.816406 242.351562 L 24.042969 243.039062 L 24.285156 243.714844 L 25.257812 246.433594 C 26.617188 250.035156 28.035156 253.617188 29.644531 257.128906 L 30.234375 258.449219 C 30.429688 258.886719 30.648438 259.316406 30.855469 259.753906 L 32.105469 262.359375 L 33.421875 264.9375 L 34.078125 266.226562 L 34.769531 267.496094 L 36.15625 270.035156 L 37.601562 272.542969 C 37.84375 272.957031 38.078125 273.382812 38.328125 273.792969 L 39.082031 275.027344 L 39.835938 276.265625 C 40.089844 276.675781 40.332031 277.09375 40.597656 277.496094 C 41.640625 279.117188 42.667969 280.757812 43.765625 282.34375 L 44.578125 283.542969 L 44.984375 284.144531 L 45.402344 284.734375 L 47.085938 287.09375 C 47.363281 287.488281 47.652344 287.875 47.941406 288.261719 L 48.808594 289.421875 C 49.390625 290.195312 49.960938 290.972656 50.566406 291.726562 L 52.359375 294.007812 C 52.964844 294.757812 53.585938 295.5 54.199219 296.25 L 55.121094 297.367188 L 56.070312 298.464844 L 57.96875 300.65625 L 59.914062 302.804688 C 60.238281 303.160156 60.5625 303.527344 60.894531 303.875 L 61.894531 304.925781 C 64.539062 307.75 67.320312 310.453125 70.152344 313.09375 L 72.296875 315.054688 C 72.652344 315.378906 73.023438 315.703125 73.386719 316.015625 L 75.582031 317.921875 C 75.945312 318.246094 76.324219 318.542969 76.695312 318.855469 L 78.933594 320.710938 C 88.019531 328.09375 97.746094 334.5 108.121094 339.929688 C 118.492188 345.359375 129.300781 349.703125 140.546875 352.960938 C 144.289062 354.074219 148.082031 355.003906 151.890625 355.863281 C 153.804688 356.261719 155.710938 356.683594 157.636719 357.015625 L 159.078125 357.28125 C 159.566406 357.367188 160.039062 357.460938 160.523438 357.535156 L 163.421875 357.992188 C 164.390625 358.152344 165.363281 358.269531 166.324219 358.402344 L 167.785156 358.597656 C 168.269531 358.660156 168.757812 358.734375 169.242188 358.78125 C 171.1875 358.984375 173.132812 359.226562 175.085938 359.363281 C 176.058594 359.441406 177.03125 359.527344 178.015625 359.601562 L 180.949219 359.761719 C 181.433594 359.789062 181.921875 359.820312 182.417969 359.84375 L 183.882812 359.890625 L 186.824219 359.988281 Z M 186.828125 360.804688 " fill-opacity="1" fill-rule="nonzero"/></g><g fill="#ff8dab" fill-opacity="1"><g transform="translate(77.246218, 245.663469)"><g><path d="M 22.90625 3.921875 C 16.476562 3.921875 10.648438 1.863281 5.421875 -2.25 C 0.203125 -6.375 -2.40625 -11.851562 -2.40625 -18.6875 C -2.40625 -32.957031 6.332031 -49.238281 23.8125 -67.53125 C 41.707031 -86.03125 57.6875 -95.28125 71.75 -95.28125 C 76.582031 -95.28125 80.40625 -94.019531 83.21875 -91.5 C 86.03125 -88.988281 87.4375 -85.925781 87.4375 -82.3125 C 87.4375 -77.28125 86.226562 -72.65625 83.8125 -68.4375 C 81 -63.207031 76.976562 -60.59375 71.75 -60.59375 C 66.53125 -60.59375 63.921875 -62.203125 63.921875 -65.421875 C 63.921875 -67.628906 65.226562 -70.945312 67.84375 -75.375 C 70.65625 -80 72.0625 -82.410156 72.0625 -82.609375 C 72.0625 -83.015625 71.757812 -83.21875 71.15625 -83.21875 C 65.53125 -82.613281 57.691406 -78.492188 47.640625 -70.859375 C 43.210938 -67.441406 39.335938 -64.222656 36.015625 -61.203125 C 32.703125 -58.191406 30.046875 -55.28125 28.046875 -52.46875 L 16.28125 -35.28125 C 15.070312 -33.46875 13.8125 -30.347656 12.5 -25.921875 C 11.195312 -21.503906 10.546875 -18.191406 10.546875 -15.984375 C 10.546875 -11.960938 11.898438 -8.644531 14.609375 -6.03125 C 17.328125 -3.414062 20.800781 -2.109375 25.03125 -2.109375 C 35.070312 -2.109375 48.335938 -8.640625 64.828125 -21.703125 C 78.085938 -32.160156 88.738281 -42.710938 96.78125 -53.359375 C 97.78125 -54.566406 98.988281 -55.171875 100.40625 -55.171875 C 101.8125 -55.171875 102.515625 -54.769531 102.515625 -53.96875 C 102.515625 -53.363281 102.007812 -52.359375 101 -50.953125 C 89.945312 -36.273438 76.984375 -23.613281 62.109375 -12.96875 C 46.234375 -1.707031 33.164062 3.921875 22.90625 3.921875 Z M 22.90625 3.921875 "/></g></g></g><g fill="#ff8dab" fill-opacity="1"><g transform="translate(162.562215, 245.663469)"><g><path d="M -51.25 61.8125 C -57.28125 61.8125 -62.40625 59.296875 -66.625 54.265625 C -70.851562 49.242188 -73.066406 43.816406 -73.265625 37.984375 C -72.660156 35.578125 -71.753906 34.375 -70.546875 34.375 C -69.335938 34.375 -68.632812 35.929688 -68.4375 39.046875 C -68.238281 42.160156 -66.628906 45.222656 -63.609375 48.234375 C -60.597656 51.253906 -57.585938 52.765625 -54.578125 52.765625 C -37.484375 52.765625 -21.90625 42.210938 -7.84375 21.109375 C -4.019531 15.472656 0.703125 7.28125 6.328125 -3.46875 C 11.960938 -14.21875 18.195312 -27.734375 25.03125 -44.015625 L 41.3125 -83.21875 C 21.207031 -83.414062 11.15625 -85.828125 11.15625 -90.453125 C 11.15625 -92.660156 12.160156 -94.414062 14.171875 -95.71875 C 16.179688 -97.03125 17.789062 -97.6875 19 -97.6875 C 19.195312 -97.6875 21.707031 -97.632812 26.53125 -97.53125 C 31.351562 -97.4375 38.285156 -97.285156 47.328125 -97.078125 C 67.023438 -140.898438 85.117188 -162.8125 101.609375 -162.8125 C 108.035156 -162.8125 114.363281 -159.796875 120.59375 -153.765625 C 122.207031 -152.160156 123.015625 -150.050781 123.015625 -147.4375 C 123.015625 -141.207031 121.203125 -138.09375 117.578125 -138.09375 C 116.578125 -138.09375 115.570312 -138.894531 114.5625 -140.5 C 113.757812 -141.90625 112.453125 -143.0625 110.640625 -143.96875 C 108.835938 -144.875 107.132812 -145.328125 105.53125 -145.328125 C 99.5 -145.328125 94.21875 -143.0625 89.6875 -138.53125 C 85.164062 -134.007812 80.945312 -128.128906 77.03125 -120.890625 C 73.113281 -113.660156 68.941406 -105.722656 64.515625 -97.078125 L 68.140625 -97.078125 C 90.046875 -97.078125 104.617188 -97.378906 111.859375 -97.984375 C 112.660156 -97.785156 113.0625 -97.382812 113.0625 -96.78125 C 113.0625 -95.175781 105.925781 -92.96875 91.65625 -90.15625 C 86.03125 -89.34375 80.503906 -88.429688 75.078125 -87.421875 C 69.648438 -86.421875 64.117188 -85.421875 58.484375 -84.421875 C 55.878906 -78.796875 52.664062 -72.113281 48.84375 -64.375 C 45.019531 -56.632812 40.695312 -48.039062 35.875 -38.59375 C 26.425781 -20.90625 18.6875 -6.835938 12.65625 3.609375 C 6.632812 14.066406 2.414062 21.003906 0 24.421875 C -17.488281 49.347656 -34.570312 61.8125 -51.25 61.8125 Z M -51.25 61.8125 "/></g></g></g><g clip-path="url(#0c1b39aadb)"><g clip-path="url(#7aff799e6d)"><g clip-path="url(#d58b6d90af)"><path fill="#000000" d="M 206.382812 358.773438 C 206.617188 358.902344 206.9375 358.691406 208.09375 357.648438 C 210.621094 355.367188 211.933594 354.621094 218.484375 351.738281 C 224.570312 349.058594 225.882812 348.359375 228.09375 346.625 C 230.570312 344.683594 233.414062 341.496094 234.300781 339.675781 L 234.832031 338.589844 L 239.019531 337.773438 C 241.324219 337.324219 243.605469 336.882812 244.089844 336.796875 C 245.558594 336.523438 248.160156 335.929688 252.359375 334.902344 C 255.824219 334.058594 256.757812 333.886719 256.671875 334.109375 C 256.441406 334.707031 250.140625 340.851562 247.953125 342.617188 C 247.351562 343.101562 245.484375 344.433594 243.808594 345.578125 C 242.132812 346.71875 240.320312 347.996094 239.78125 348.410156 C 236.394531 351.019531 233.621094 354.304688 231.515625 358.199219 C 230.445312 360.179688 230.339844 360.574219 230.855469 360.691406 C 231.128906 360.75 231.308594 360.578125 231.878906 359.703125 C 233.15625 357.746094 234.964844 356.289062 240.691406 352.601562 C 251.082031 345.914062 255.042969 341.996094 257.738281 335.75 C 258.28125 334.496094 258.789062 333.421875 258.867188 333.363281 C 258.992188 333.277344 262.285156 332.382812 265.691406 331.511719 C 266.144531 331.398438 266.542969 331.363281 266.574219 331.433594 C 266.605469 331.507812 266.394531 331.832031 266.097656 332.160156 C 264.546875 333.882812 264.785156 337.007812 266.523438 337.679688 C 267.890625 338.210938 270.320312 337.011719 271.710938 335.125 C 271.957031 334.789062 272.226562 334.425781 272.304688 334.324219 C 272.398438 334.199219 272.609375 334.472656 272.933594 335.152344 C 274.527344 338.445312 277.28125 338.398438 278.574219 335.058594 C 279.292969 333.195312 278.613281 331.207031 276.769531 329.769531 C 276.355469 329.449219 275.980469 329.117188 275.9375 329.039062 C 275.890625 328.957031 277.171875 328.5 278.78125 328.023438 C 280.394531 327.546875 282.667969 326.824219 283.839844 326.417969 C 286.542969 325.476562 292.847656 322.65625 295.175781 321.34375 C 296.160156 320.789062 297.027344 320.355469 297.101562 320.386719 C 297.316406 320.46875 296.617188 321.640625 293.84375 325.867188 C 290.8125 330.488281 290.28125 331.175781 287.25 334.375 C 284.390625 337.394531 283.011719 339.019531 281.136719 341.566406 C 278.375 345.320312 275.757812 350.1875 274.472656 353.960938 C 273.734375 356.132812 273.671875 356.484375 273.992188 356.773438 C 274.304688 357.054688 274.695312 356.832031 275.050781 356.167969 C 276.488281 353.484375 276.914062 352.738281 277.894531 351.191406 C 280.199219 347.546875 283.117188 343.632812 285.464844 341.046875 C 286.179688 340.257812 288.035156 338.371094 289.585938 336.851562 C 294.023438 332.503906 295.191406 331.089844 296.566406 328.394531 C 297.390625 326.78125 297.976562 324.78125 298.46875 321.878906 C 298.652344 320.792969 298.871094 319.730469 298.953125 319.515625 C 299.042969 319.28125 299.753906 318.707031 300.785156 318.035156 C 302.777344 316.734375 306.382812 314.160156 308.230469 312.71875 C 309.707031 311.5625 310.082031 311.390625 309.632812 312.066406 C 309.105469 312.867188 308.53125 314.550781 308.488281 315.421875 C 308.433594 316.523438 308.828125 317.6875 309.472656 318.34375 C 310.511719 319.40625 311.539062 319.410156 312.675781 318.359375 C 313.347656 317.738281 313.492188 317.503906 313.976562 316.207031 C 314.410156 315.054688 314.511719 314.566406 314.476562 313.859375 C 314.414062 312.585938 314.140625 311.789062 313.503906 310.996094 C 312.828125 310.160156 312.816406 310.109375 313.003906 309.261719 C 313.132812 308.675781 313.347656 308.40625 314.714844 307.101562 C 316.113281 305.765625 319.28125 302.558594 319.835938 301.921875 C 319.957031 301.785156 320.082031 301.738281 320.117188 301.820312 C 320.21875 302.046875 319.9375 303.964844 319.117188 308.636719 C 317.980469 315.105469 317.933594 315.308594 316.921875 318.398438 C 315.832031 321.710938 315.632812 322.875 315.8125 324.894531 C 316.070312 327.773438 317.832031 333.207031 318.566406 333.375 C 319.097656 333.496094 319.210938 333.078125 319.171875 331.144531 C 319.109375 328.324219 319.347656 324.046875 319.667969 322.207031 C 319.824219 321.285156 320.371094 319.039062 320.882812 317.210938 C 322.554688 311.1875 322.917969 308.679688 322.605469 305.25 C 322.519531 304.351562 322.238281 302.828125 321.96875 301.867188 L 321.488281 300.121094 L 322.015625 299.429688 C 322.304688 299.050781 323.113281 298.011719 323.808594 297.125 C 325.320312 295.199219 330.492188 288.046875 332.28125 285.40625 C 336.160156 279.675781 336.332031 279.40625 338.535156 275.585938 C 339.410156 274.0625 340.324219 272.542969 340.5625 272.207031 C 340.800781 271.871094 340.996094 271.476562 340.996094 271.328125 C 340.996094 271 340.648438 270.851562 340.316406 271.035156 C 340.179688 271.113281 339.257812 272.554688 338.273438 274.234375 C 335.871094 278.335938 335.011719 279.699219 332.496094 283.429688 L 330.359375 286.597656 L 328.960938 287.238281 C 327.71875 287.804688 327.140625 287.925781 323.894531 288.304688 C 319.933594 288.765625 318.945312 288.984375 315.839844 290.089844 C 313.375 290.96875 312.003906 291.316406 308.960938 291.84375 C 305.980469 292.355469 304.070312 293.117188 301.875 294.660156 C 300.027344 295.960938 298.386719 297.371094 298.21875 297.808594 C 298.101562 298.109375 298.242188 298.558594 298.480469 298.652344 C 298.5625 298.683594 299.667969 298.242188 300.941406 297.671875 C 305.039062 295.839844 306.914062 295.398438 312.855469 294.867188 C 319.542969 294.265625 323.21875 293.324219 326.097656 291.476562 C 326.496094 291.222656 326.859375 291.027344 326.90625 291.042969 C 327.410156 291.238281 320.792969 299.636719 317.375 303.144531 C 313.898438 306.710938 313.027344 307.464844 311.851562 307.945312 C 309.128906 309.0625 303.691406 309.238281 298.875 308.363281 C 293.234375 307.339844 291.535156 307.199219 288.65625 307.519531 C 285 307.921875 281.785156 309.191406 277.324219 311.996094 C 274.453125 313.800781 273.050781 314.855469 272.855469 315.363281 C 272.554688 316.140625 273.101562 316.050781 275.707031 314.898438 C 277.140625 314.265625 279.03125 313.5625 279.902344 313.335938 C 283.207031 312.492188 287.207031 312.296875 293.058594 312.699219 C 299.417969 313.132812 302.6875 312.878906 306.964844 311.617188 C 307.597656 311.429688 308.140625 311.332031 308.171875 311.398438 C 308.324219 311.75 300.902344 316.964844 297.113281 319.164062 C 294.132812 320.894531 289.652344 323.144531 287.230469 324.128906 C 283.996094 325.441406 278.71875 327.167969 274.832031 328.175781 L 273.269531 328.582031 L 271.484375 327.761719 C 270.503906 327.308594 266.714844 325.777344 263.070312 324.355469 C 259.421875 322.9375 254.984375 321.144531 253.210938 320.371094 C 245.230469 316.902344 238.421875 316.042969 232.160156 317.707031 C 230.132812 318.242188 229.457031 318.578125 229.457031 319.035156 C 229.453125 319.417969 229.910156 319.585938 231.070312 319.628906 C 234.019531 319.738281 237.875 320.65625 241.832031 322.183594 C 246.226562 323.882812 253.664062 326.976562 253.492188 327.035156 C 253.40625 327.066406 252.957031 327.085938 252.5 327.078125 C 251.386719 327.0625 250.523438 327.378906 249.851562 328.054688 C 249.097656 328.808594 248.992188 329.484375 249.476562 330.445312 C 249.996094 331.472656 251 332.273438 252.542969 332.882812 C 253.234375 333.15625 253.777344 333.429688 253.757812 333.488281 C 253.660156 333.742188 244.863281 335.75 244.269531 335.65625 C 241.953125 335.285156 240.300781 334.671875 238.089844 333.363281 C 230.304688 328.757812 223.265625 326.332031 215.75 325.667969 C 212.253906 325.359375 208.574219 325.398438 207.605469 325.757812 C 207.183594 325.910156 206.953125 326.394531 207.199219 326.617188 C 207.296875 326.703125 208.015625 326.828125 208.800781 326.898438 C 211.71875 327.152344 213.207031 327.542969 217.308594 329.125 C 220.238281 330.253906 221.886719 330.984375 224.417969 332.277344 C 229.902344 335.078125 233.121094 336.183594 236.933594 336.570312 C 238.96875 336.777344 238.753906 336.882812 234.769531 337.65625 C 233.246094 337.949219 231.875 338.191406 231.726562 338.191406 C 231.554688 338.191406 231.222656 337.824219 230.859375 337.238281 C 229.734375 335.429688 227.546875 334.050781 225.40625 333.804688 C 223.558594 333.589844 221.765625 334.03125 220.859375 334.929688 C 218.890625 336.871094 221.777344 340.328125 225.75 340.78125 C 226.28125 340.84375 226.753906 340.90625 226.800781 340.925781 C 226.847656 340.941406 226.230469 341.277344 225.429688 341.667969 C 220.378906 344.136719 211.84375 351.183594 207.183594 356.726562 C 206.191406 357.90625 205.945312 358.53125 206.382812 358.773438 Z M 211.195312 353.945312 C 211.058594 353.636719 214.875 350.203125 218.441406 347.425781 C 222.484375 344.277344 225.269531 342.574219 227.761719 341.734375 C 228.5625 341.464844 229.886719 340.847656 230.703125 340.367188 C 231.523438 339.886719 232.417969 339.421875 232.691406 339.339844 C 233.429688 339.113281 233.539062 339.226562 233.175781 339.847656 C 232.351562 341.269531 229.695312 344.128906 227.714844 345.730469 C 225.542969 347.484375 224.011719 348.308594 218.210938 350.84375 C 215.050781 352.226562 212.191406 353.519531 211.859375 353.714844 C 211.523438 353.914062 211.226562 354.015625 211.195312 353.945312 Z M 234.503906 355.464844 C 234.46875 355.453125 234.460938 355.410156 234.476562 355.34375 C 234.710938 354.335938 238.878906 350.136719 241.375 348.394531 C 242.089844 347.898438 244.054688 346.527344 245.742188 345.351562 C 248.765625 343.242188 250.007812 342.171875 254.839844 337.507812 C 255.679688 336.699219 256.417969 336.058594 256.480469 336.082031 C 256.675781 336.15625 256.265625 337.015625 255.328125 338.480469 C 252.453125 342.964844 248.917969 346.128906 241.097656 351.207031 C 239.019531 352.558594 236.660156 354.121094 235.855469 354.679688 C 235 355.273438 234.617188 355.503906 234.503906 355.464844 Z M 224.246094 339.496094 C 222.351562 338.777344 220.792969 337.117188 221.203125 336.0625 C 221.542969 335.1875 223.277344 334.550781 224.964844 334.6875 C 226.855469 334.835938 229.003906 336.054688 229.890625 337.472656 C 230.605469 338.617188 230.570312 338.777344 229.476562 339.328125 C 228.476562 339.832031 226.410156 340.023438 225.070312 339.738281 C 224.792969 339.679688 224.515625 339.597656 224.246094 339.496094 Z M 222.488281 336.257812 C 222.683594 336.304688 223.023438 336.253906 223.519531 336.105469 C 224.566406 335.792969 224.695312 335.703125 224.585938 335.386719 C 224.480469 335.066406 224.328125 335.003906 223.8125 335.058594 C 223.105469 335.132812 222.488281 335.453125 222.347656 335.816406 C 222.253906 336.0625 222.296875 336.210938 222.488281 336.257812 Z M 230.425781 333.988281 C 228.550781 333.261719 226.40625 332.292969 224.152344 331.148438 C 220.773438 329.433594 215.632812 327.304688 213.910156 326.90625 C 212.597656 326.601562 212.984375 326.371094 214.597656 326.492188 C 217.21875 326.691406 219.28125 326.980469 221.503906 327.46875 C 223.214844 327.847656 224.640625 328.296875 227.785156 329.460938 C 231.980469 331.019531 233.265625 331.621094 237.023438 333.804688 C 237.988281 334.367188 239.117188 335.007812 239.535156 335.238281 C 239.953125 335.464844 240.234375 335.695312 240.160156 335.753906 C 239.96875 335.898438 236.988281 335.683594 235.050781 335.382812 C 233.894531 335.203125 232.296875 334.714844 230.425781 333.988281 Z M 276.820312 350.757812 C 276.773438 350.71875 276.875 350.441406 277.152344 349.894531 C 280.03125 344.265625 282.859375 340.378906 288.136719 334.808594 C 290.691406 332.113281 291.449219 331.152344 293.609375 327.890625 C 294.574219 326.429688 295.769531 324.625 296.261719 323.875 C 296.757812 323.125 297.210938 322.53125 297.269531 322.554688 C 297.574219 322.671875 296.753906 325.835938 295.992188 327.484375 C 294.761719 330.140625 293.21875 332.023438 288.558594 336.546875 C 287.171875 337.894531 285.386719 339.726562 284.585938 340.625 C 282.828125 342.59375 279.742188 346.644531 278.148438 349.066406 C 277.390625 350.21875 276.898438 350.824219 276.820312 350.757812 Z M 252.890625 332.0625 C 251.242188 331.433594 249.855469 329.96875 250.160156 329.179688 C 250.363281 328.65625 251.285156 328.097656 252.101562 328.007812 C 253.160156 327.886719 255.367188 328.679688 256.238281 329.492188 C 257.234375 330.417969 257.617188 331.5625 257.15625 332.21875 C 256.769531 332.765625 254.523438 332.683594 252.890625 332.0625 Z M 266.714844 336.679688 C 266.53125 336.589844 266.371094 336.453125 266.246094 336.265625 C 266.039062 335.957031 266.066406 335.8125 266.527344 334.816406 C 267.003906 333.785156 267.019531 333.695312 266.753906 333.480469 C 266.390625 333.191406 266.445312 333.070312 267.269531 332.324219 C 268.230469 331.453125 269.921875 330.484375 270.996094 330.195312 C 271.5 330.058594 271.988281 329.972656 272.074219 330.003906 C 272.160156 330.039062 272.207031 330.578125 272.175781 331.207031 C 272.132812 332.101562 272.015625 332.578125 271.628906 333.417969 C 270.550781 335.75 268.003906 337.320312 266.714844 336.679688 Z M 252.011719 330.03125 C 252.265625 330.261719 253.191406 329.953125 253.332031 329.59375 C 253.410156 329.390625 253.339844 329.257812 253.113281 329.171875 C 252.453125 328.914062 251.554688 329.617188 252.011719 330.03125 Z M 258.324219 332.351562 C 258.253906 332.296875 258.222656 332.003906 258.257812 331.703125 C 258.402344 330.464844 257.300781 328.898438 255.601562 327.921875 C 254.875 327.503906 255.03125 327.28125 255.832031 327.589844 C 257.589844 328.269531 263.4375 329.421875 266.058594 329.605469 C 267.8125 329.726562 268.15625 329.792969 267.832031 329.933594 C 267.207031 330.207031 258.429688 332.4375 258.324219 332.351562 Z M 275.449219 336.585938 C 275.070312 336.464844 274.6875 336.148438 274.304688 335.632812 C 273.414062 334.425781 273.078125 332.921875 273.21875 330.746094 L 273.285156 329.683594 L 273.710938 329.542969 C 274.644531 329.226562 276.585938 330.480469 277.515625 331.996094 C 278.171875 333.0625 278.097656 334.433594 277.328125 335.546875 C 276.710938 336.441406 276.082031 336.789062 275.449219 336.585938 Z M 232.753906 318.828125 C 232.585938 318.78125 232.625 318.738281 232.664062 318.640625 C 232.8125 318.253906 237.070312 317.726562 239.316406 317.816406 C 241.351562 317.894531 243.820312 318.265625 246.140625 318.835938 C 247.980469 319.285156 248.921875 319.632812 253.390625 321.492188 C 256.21875 322.664062 259.796875 324.121094 261.351562 324.722656 C 262.902344 325.320312 265.183594 326.15625 266.421875 326.574219 C 268.589844 327.304688 270.660156 328.300781 270.558594 328.5625 C 270.449219 328.851562 266.933594 328.804688 264.28125 328.480469 C 262.328125 328.242188 259.214844 327.597656 256.894531 326.953125 C 255.804688 326.652344 252.070312 325.261719 246.929688 323.242188 C 238.308594 319.855469 237.097656 319.457031 234.117188 319.039062 C 233.308594 318.925781 232.925781 318.875 232.753906 318.828125 Z M 274.945312 334.972656 C 275.460938 335.171875 275.609375 334.734375 275.3125 333.898438 C 275.023438 333.066406 274.527344 332.722656 274.257812 333.15625 C 274.0625 333.46875 274.578125 334.832031 274.945312 334.972656 Z M 318.035156 330.050781 C 317.765625 329.945312 316.929688 326.535156 316.773438 324.914062 C 316.601562 323.09375 316.832031 321.347656 317.460938 319.710938 C 318.296875 317.539062 318.941406 314.875 319.820312 309.960938 C 320.324219 307.167969 320.777344 304.460938 320.832031 303.953125 C 320.886719 303.441406 320.949219 302.972656 320.972656 302.910156 C 321.195312 302.308594 321.648438 304.246094 321.761719 306.273438 C 321.917969 309.050781 321.550781 311.324219 320.117188 316.472656 C 318.679688 321.65625 318.339844 323.734375 318.226562 328.15625 C 318.199219 329.226562 318.113281 330.078125 318.035156 330.050781 Z M 278.117188 312.765625 C 278.085938 312.753906 278.074219 312.738281 278.082031 312.714844 C 278.195312 312.425781 281.644531 310.519531 283.25 309.855469 C 285.914062 308.757812 289.242188 308.1875 292.191406 308.324219 C 293.015625 308.363281 295.542969 308.714844 297.808594 309.105469 C 302.261719 309.871094 305.164062 310.082031 307.40625 309.800781 C 308.148438 309.710938 308.832031 309.664062 308.925781 309.699219 C 309.515625 309.925781 304.949219 311.316406 302.378906 311.6875 C 300.222656 312 297.019531 312.027344 293.164062 311.765625 C 286.695312 311.320312 282.445312 311.585938 278.761719 312.664062 C 278.457031 312.753906 278.207031 312.789062 278.117188 312.765625 Z M 310.730469 318.109375 C 310.089844 317.863281 309.5625 316.972656 309.453125 315.957031 C 309.375 315.199219 309.4375 314.839844 309.832031 313.820312 C 310.242188 312.765625 310.421875 312.492188 311.117188 311.855469 C 311.652344 311.371094 312.035156 311.144531 312.246094 311.195312 C 312.769531 311.320312 313.351562 312.351562 313.488281 313.402344 C 313.785156 315.664062 312.050781 318.621094 310.730469 318.109375 Z M 310.382812 316.484375 C 310.628906 316.582031 310.71875 316.503906 310.855469 316.09375 C 310.949219 315.8125 310.980469 315.449219 310.921875 315.28125 C 310.804688 314.933594 310.570312 314.882812 310.230469 315.136719 C 309.890625 315.390625 309.996094 316.335938 310.382812 316.484375 Z M 301.5 296.238281 C 301.367188 295.941406 304.078125 294.234375 305.613281 293.648438 C 306.269531 293.394531 307.710938 293.023438 308.816406 292.824219 C 312.425781 292.167969 313.582031 291.875 316.132812 290.976562 C 319.207031 289.890625 320.941406 289.503906 324.257812 289.175781 C 325.664062 289.035156 327.09375 288.859375 327.433594 288.785156 C 328.34375 288.585938 328.125 288.921875 326.636719 290 C 324.894531 291.257812 321.976562 292.492188 319.433594 293.039062 C 318.277344 293.289062 315.222656 293.703125 312.644531 293.960938 C 307.628906 294.457031 305.464844 294.863281 303.058594 295.761719 C 302.222656 296.074219 301.523438 296.289062 301.5 296.238281 Z M 301.5 296.238281 " fill-opacity="1" fill-rule="nonzero"/></g></g></g><g clip-path="url(#243836b675)"><g clip-path="url(#973cda9374)"><g clip-path="url(#76ce22c055)"><path fill="#000000" d="M 157.894531 12.316406 C 157.65625 12.195312 157.34375 12.417969 156.234375 13.511719 C 153.804688 15.898438 152.527344 16.703125 146.109375 19.867188 C 140.144531 22.804688 138.863281 23.558594 136.730469 25.390625 C 134.34375 27.4375 131.636719 30.746094 130.832031 32.601562 L 130.347656 33.710938 L 126.195312 34.707031 C 123.914062 35.253906 121.652344 35.792969 121.175781 35.902344 C 119.71875 36.238281 117.144531 36.945312 112.996094 38.148438 C 109.570312 39.144531 108.644531 39.359375 108.71875 39.132812 C 108.925781 38.523438 114.953125 32.109375 117.0625 30.253906 C 117.644531 29.742188 119.449219 28.332031 121.074219 27.117188 C 122.699219 25.902344 124.457031 24.550781 124.976562 24.113281 C 128.246094 21.359375 130.875 17.957031 132.808594 13.976562 C 133.792969 11.949219 133.882812 11.550781 133.363281 11.457031 C 133.085938 11.40625 132.914062 11.589844 132.382812 12.488281 C 131.191406 14.5 129.445312 16.035156 123.886719 19.964844 C 113.796875 27.09375 110.007812 31.179688 107.582031 37.539062 C 107.097656 38.816406 106.636719 39.910156 106.558594 39.96875 C 106.4375 40.0625 103.1875 41.097656 99.820312 42.117188 C 99.371094 42.25 98.976562 42.304688 98.941406 42.234375 C 98.90625 42.160156 99.109375 41.828125 99.386719 41.488281 C 100.863281 39.699219 100.488281 36.585938 98.722656 35.988281 C 97.335938 35.519531 94.960938 36.820312 93.652344 38.765625 C 93.417969 39.117188 93.167969 39.488281 93.09375 39.59375 C 93.003906 39.71875 92.785156 39.457031 92.429688 38.792969 C 90.695312 35.574219 87.945312 35.738281 86.800781 39.132812 C 86.160156 41.023438 86.925781 42.980469 88.828125 44.335938 C 89.253906 44.640625 89.644531 44.953125 89.691406 45.03125 C 89.742188 45.109375 88.480469 45.621094 86.894531 46.167969 C 85.304688 46.714844 83.0625 47.535156 81.914062 47.992188 C 79.25 49.046875 73.074219 52.140625 70.804688 53.554688 C 69.847656 54.148438 69 54.617188 68.921875 54.589844 C 68.707031 54.519531 69.351562 53.316406 71.9375 48.972656 C 74.765625 44.226562 75.269531 43.515625 78.160156 40.1875 C 80.882812 37.050781 82.195312 35.367188 83.957031 32.738281 C 86.554688 28.871094 88.957031 23.894531 90.078125 20.070312 C 90.722656 17.867188 90.765625 17.511719 90.4375 17.238281 C 90.113281 16.96875 89.730469 17.210938 89.402344 17.886719 C 88.082031 20.632812 87.6875 21.394531 86.777344 22.984375 C 84.636719 26.722656 81.886719 30.761719 79.652344 33.449219 C 78.972656 34.265625 77.203125 36.230469 75.71875 37.816406 C 71.472656 42.351562 70.367188 43.8125 69.109375 46.566406 C 68.355469 48.214844 67.859375 50.238281 67.492188 53.160156 C 67.355469 54.253906 67.183594 55.324219 67.113281 55.539062 C 67.03125 55.78125 66.34375 56.386719 65.34375 57.101562 C 63.410156 58.484375 59.917969 61.214844 58.136719 62.734375 C 56.710938 63.949219 56.34375 64.140625 56.761719 63.445312 C 57.257812 62.625 57.757812 60.917969 57.761719 60.042969 C 57.765625 58.941406 57.324219 57.796875 56.652344 57.167969 C 55.566406 56.152344 54.539062 56.191406 53.449219 57.289062 C 52.804688 57.9375 52.671875 58.179688 52.242188 59.496094 C 51.863281 60.664062 51.777344 61.160156 51.847656 61.863281 C 51.964844 63.136719 52.269531 63.917969 52.945312 64.683594 C 53.652344 65.488281 53.667969 65.539062 53.515625 66.394531 C 53.410156 66.984375 53.210938 67.261719 51.902344 68.625 C 50.5625 70.023438 47.535156 73.359375 47.007812 74.023438 C 46.894531 74.164062 46.769531 74.214844 46.730469 74.136719 C 46.621094 73.914062 46.820312 71.984375 47.4375 67.28125 C 48.292969 60.769531 48.328125 60.566406 49.207031 57.4375 C 50.152344 54.078125 50.300781 52.90625 50.03125 50.898438 C 49.652344 48.03125 47.65625 42.679688 46.917969 42.542969 C 46.378906 42.445312 46.28125 42.867188 46.410156 44.796875 C 46.589844 47.613281 46.539062 51.894531 46.300781 53.75 C 46.179688 54.675781 45.730469 56.945312 45.304688 58.792969 C 43.890625 64.882812 43.636719 67.40625 44.101562 70.816406 C 44.222656 71.710938 44.570312 73.21875 44.878906 74.167969 L 45.4375 75.890625 L 44.941406 76.605469 C 44.667969 76.996094 43.90625 78.070312 43.246094 78.988281 C 41.820312 80.976562 36.964844 88.347656 35.292969 91.0625 C 31.664062 96.953125 31.503906 97.230469 29.46875 101.144531 C 28.65625 102.699219 27.8125 104.257812 27.589844 104.605469 C 27.363281 104.953125 27.1875 105.355469 27.191406 105.503906 C 27.207031 105.832031 27.558594 105.964844 27.882812 105.765625 C 28.019531 105.683594 28.875 104.203125 29.789062 102.480469 C 32.011719 98.28125 32.808594 96.878906 35.160156 93.042969 L 37.15625 89.785156 L 38.53125 89.085938 C 39.746094 88.46875 40.316406 88.320312 43.542969 87.804688 C 47.480469 87.171875 48.460938 86.910156 51.515625 85.667969 C 53.9375 84.6875 55.292969 84.277344 58.3125 83.621094 C 61.265625 82.980469 63.140625 82.136719 65.265625 80.5 C 67.058594 79.121094 68.632812 77.640625 68.785156 77.195312 C 68.886719 76.890625 68.726562 76.445312 68.484375 76.367188 C 68.402344 76.339844 67.316406 76.824219 66.070312 77.449219 C 62.054688 79.457031 60.199219 79.980469 54.289062 80.769531 C 47.632812 81.65625 44 82.757812 41.203125 84.726562 C 40.816406 85 40.460938 85.210938 40.417969 85.195312 C 39.90625 85.023438 46.152344 76.347656 49.414062 72.695312 C 52.734375 68.980469 53.570312 68.1875 54.722656 67.65625 C 57.398438 66.425781 62.824219 66.015625 67.671875 66.679688 C 73.351562 67.457031 75.054688 67.523438 77.917969 67.082031 C 81.550781 66.519531 84.710938 65.109375 89.046875 62.117188 C 91.835938 60.191406 93.191406 59.074219 93.363281 58.5625 C 93.632812 57.769531 93.089844 57.882812 90.535156 59.148438 C 89.128906 59.84375 87.273438 60.628906 86.410156 60.890625 C 83.148438 61.875 79.15625 62.242188 73.292969 62.097656 C 66.921875 61.9375 63.667969 62.332031 59.445312 63.777344 C 58.824219 63.992188 58.285156 64.113281 58.253906 64.050781 C 58.082031 63.707031 65.273438 58.175781 68.964844 55.8125 C 71.867188 53.957031 76.246094 51.511719 78.621094 50.425781 C 81.796875 48.972656 86.996094 47.023438 90.835938 45.84375 L 92.375 45.371094 L 94.195312 46.117188 C 95.199219 46.523438 99.046875 47.890625 102.753906 49.152344 C 106.457031 50.410156 110.964844 52.011719 112.773438 52.707031 C 120.898438 55.824219 127.734375 56.390625 133.917969 54.457031 C 135.921875 53.832031 136.582031 53.472656 136.5625 53.015625 C 136.546875 52.628906 136.085938 52.480469 134.921875 52.488281 C 131.972656 52.507812 128.082031 51.757812 124.0625 50.40625 C 119.597656 48.898438 112.035156 46.128906 112.203125 46.058594 C 112.289062 46.023438 112.734375 45.984375 113.195312 45.972656 C 114.304688 45.941406 115.152344 45.589844 115.796875 44.886719 C 116.519531 44.097656 116.59375 43.421875 116.066406 42.480469 C 115.503906 41.476562 114.464844 40.722656 112.898438 40.179688 C 112.195312 39.933594 111.640625 39.6875 111.660156 39.625 C 111.746094 39.371094 120.445312 36.980469 121.042969 37.050781 C 123.375 37.320312 125.054688 37.859375 127.316406 39.070312 C 135.296875 43.335938 142.433594 45.453125 149.972656 45.792969 C 153.476562 45.949219 157.148438 45.75 158.101562 45.351562 C 158.519531 45.179688 158.726562 44.6875 158.46875 44.476562 C 158.371094 44.394531 157.644531 44.296875 156.859375 44.265625 C 153.929688 44.136719 152.429688 43.8125 148.265625 42.410156 C 145.289062 41.40625 143.609375 40.746094 141.023438 39.566406 C 135.421875 37.003906 132.160156 36.039062 128.335938 35.820312 C 126.289062 35.703125 126.5 35.585938 130.449219 34.640625 C 131.957031 34.28125 133.316406 33.980469 133.46875 33.972656 C 133.636719 33.96875 133.984375 34.320312 134.375 34.886719 C 135.574219 36.644531 137.820312 37.929688 139.972656 38.082031 C 141.828125 38.214844 143.597656 37.695312 144.464844 36.761719 C 146.347656 34.738281 143.3125 31.410156 139.324219 31.125 C 138.789062 31.089844 138.316406 31.046875 138.269531 31.03125 C 138.222656 31.015625 138.824219 30.652344 139.605469 30.230469 C 144.542969 27.542969 152.769531 20.132812 157.183594 14.394531 C 158.125 13.171875 158.339844 12.535156 157.894531 12.316406 Z M 153.296875 17.34375 C 153.449219 17.648438 149.78125 21.246094 146.339844 24.171875 C 142.4375 27.492188 139.726562 29.3125 137.273438 30.261719 C 136.484375 30.566406 135.1875 31.238281 134.390625 31.753906 C 133.59375 32.269531 132.722656 32.773438 132.449219 32.867188 C 131.722656 33.125 131.609375 33.015625 131.945312 32.378906 C 132.707031 30.925781 135.238281 27.953125 137.148438 26.269531 C 139.242188 24.421875 140.738281 23.53125 146.417969 20.746094 C 149.519531 19.230469 152.320312 17.8125 152.644531 17.601562 C 152.96875 17.390625 153.261719 17.277344 153.296875 17.34375 Z M 129.941406 16.835938 C 129.980469 16.847656 129.988281 16.886719 129.972656 16.957031 C 129.785156 17.972656 125.800781 22.351562 123.382812 24.199219 C 122.695312 24.722656 120.789062 26.179688 119.152344 27.425781 C 116.222656 29.664062 115.027344 30.785156 110.402344 35.65625 C 109.601562 36.5 108.890625 37.171875 108.828125 37.152344 C 108.625 37.085938 109.003906 36.210938 109.875 34.707031 C 112.550781 30.101562 115.945312 26.789062 123.539062 21.375 C 125.558594 19.9375 127.847656 18.273438 128.625 17.679688 C 129.457031 17.046875 129.828125 16.800781 129.941406 16.835938 Z M 140.882812 32.347656 C 142.804688 32.980469 144.433594 34.574219 144.074219 35.644531 C 143.769531 36.535156 142.0625 37.246094 140.371094 37.183594 C 138.476562 37.113281 136.277344 35.992188 135.332031 34.609375 C 134.570312 33.5 134.597656 33.339844 135.664062 32.742188 C 136.640625 32.195312 138.699219 31.910156 140.046875 32.136719 C 140.328125 32.183594 140.609375 32.257812 140.882812 32.347656 Z M 142.777344 35.503906 C 142.582031 35.464844 142.246094 35.53125 141.757812 35.703125 C 140.722656 36.058594 140.597656 36.152344 140.71875 36.46875 C 140.839844 36.78125 140.996094 36.839844 141.507812 36.761719 C 142.210938 36.652344 142.8125 36.308594 142.9375 35.941406 C 143.023438 35.6875 142.972656 35.542969 142.777344 35.503906 Z M 134.949219 38.117188 C 136.851562 38.761719 139.039062 39.636719 141.339844 40.683594 C 144.785156 42.25 150.015625 44.15625 151.753906 44.476562 C 153.078125 44.722656 152.703125 44.972656 151.085938 44.917969 C 148.457031 44.835938 146.386719 44.632812 144.144531 44.242188 C 142.414062 43.941406 140.972656 43.550781 137.78125 42.523438 C 133.523438 41.152344 132.214844 40.601562 128.363281 38.582031 C 127.375 38.066406 126.21875 37.472656 125.792969 37.261719 C 125.363281 37.054688 125.070312 36.835938 125.144531 36.773438 C 125.332031 36.617188 128.316406 36.707031 130.265625 36.921875 C 131.425781 37.054688 133.046875 37.46875 134.949219 38.117188 Z M 87.871094 23.371094 C 87.917969 23.40625 87.832031 23.691406 87.578125 24.246094 C 84.945312 29.996094 82.289062 34 77.253906 39.796875 C 74.820312 42.597656 74.101562 43.589844 72.089844 46.941406 C 71.1875 48.441406 70.070312 50.300781 69.609375 51.070312 C 69.148438 51.839844 68.71875 52.453125 68.660156 52.433594 C 68.351562 52.328125 69.035156 49.132812 69.726562 47.453125 C 70.835938 44.742188 72.296875 42.796875 76.757812 38.074219 C 78.085938 36.671875 79.792969 34.761719 80.550781 33.832031 C 82.21875 31.789062 85.128906 27.609375 86.617188 25.117188 C 87.324219 23.933594 87.789062 23.308594 87.871094 23.371094 Z M 112.585938 41.015625 C 114.261719 41.570312 115.710938 42.972656 115.441406 43.773438 C 115.261719 44.308594 114.363281 44.902344 113.550781 45.03125 C 112.5 45.195312 110.257812 44.5 109.351562 43.726562 C 108.320312 42.84375 107.882812 41.71875 108.320312 41.042969 C 108.679688 40.476562 110.929688 40.464844 112.585938 41.015625 Z M 98.574219 36.996094 C 98.761719 37.078125 98.929688 37.210938 99.058594 37.390625 C 99.28125 37.691406 99.257812 37.835938 98.84375 38.851562 C 98.414062 39.898438 98.402344 39.996094 98.675781 40.195312 C 99.050781 40.46875 99 40.59375 98.210938 41.375 C 97.289062 42.285156 95.640625 43.324219 94.578125 43.664062 C 94.078125 43.820312 93.597656 43.925781 93.511719 43.898438 C 93.421875 43.867188 93.351562 43.328125 93.355469 42.703125 C 93.359375 41.804688 93.457031 41.324219 93.804688 40.472656 C 94.78125 38.09375 97.261719 36.414062 98.574219 36.996094 Z M 113.554688 43.003906 C 113.289062 42.785156 112.378906 43.132812 112.253906 43.5 C 112.183594 43.703125 112.261719 43.835938 112.488281 43.910156 C 113.160156 44.136719 114.027344 43.398438 113.554688 43.003906 Z M 107.148438 40.957031 C 107.21875 41.011719 107.261719 41.304688 107.238281 41.605469 C 107.148438 42.847656 108.316406 44.363281 110.058594 45.265625 C 110.800781 45.652344 110.65625 45.882812 109.839844 45.609375 C 108.058594 45.003906 102.164062 44.109375 99.539062 44.039062 C 97.78125 43.992188 97.433594 43.941406 97.753906 43.785156 C 98.363281 43.488281 107.035156 40.878906 107.148438 40.957031 Z M 89.851562 37.46875 C 90.238281 37.574219 90.632812 37.875 91.039062 38.375 C 91.980469 39.539062 92.378906 41.027344 92.335938 43.207031 L 92.3125 44.269531 L 91.894531 44.433594 C 90.976562 44.785156 88.980469 43.617188 87.984375 42.144531 C 87.289062 41.109375 87.300781 39.734375 88.019531 38.585938 C 88.597656 37.667969 89.210938 37.292969 89.851562 37.46875 Z M 133.277344 53.363281 C 133.449219 53.402344 133.410156 53.445312 133.375 53.546875 C 133.242188 53.9375 129.015625 54.648438 126.765625 54.65625 C 124.726562 54.664062 122.246094 54.40625 119.902344 53.9375 C 118.042969 53.5625 117.089844 53.261719 112.542969 51.597656 C 109.671875 50.542969 106.03125 49.246094 104.453125 48.714844 C 102.875 48.179688 100.5625 47.445312 99.308594 47.082031 C 97.109375 46.445312 94.996094 45.539062 95.085938 45.273438 C 95.183594 44.980469 98.699219 44.875 101.363281 45.085938 C 103.324219 45.238281 106.460938 45.746094 108.808594 46.289062 C 109.910156 46.542969 113.699219 47.769531 118.921875 49.566406 C 127.683594 52.578125 128.910156 52.921875 131.90625 53.210938 C 132.71875 53.289062 133.105469 53.324219 133.277344 53.363281 Z M 90.425781 39.058594 C 89.902344 38.882812 89.773438 39.324219 90.105469 40.152344 C 90.433594 40.964844 90.941406 41.289062 91.191406 40.84375 C 91.375 40.523438 90.800781 39.1875 90.425781 39.058594 Z M 47.589844 45.84375 C 47.863281 45.9375 48.847656 49.304688 49.074219 50.917969 C 49.324219 52.730469 49.171875 54.484375 48.609375 56.148438 C 47.871094 58.355469 47.34375 61.042969 46.675781 65.988281 C 46.296875 68.804688 45.960938 71.527344 45.925781 72.035156 C 45.894531 72.546875 45.851562 73.019531 45.832031 73.082031 C 45.636719 73.695312 45.097656 71.78125 44.898438 69.757812 C 44.621094 66.988281 44.890625 64.703125 46.097656 59.496094 C 47.3125 54.257812 47.558594 52.164062 47.480469 47.742188 C 47.460938 46.671875 47.511719 45.816406 47.589844 45.84375 Z M 88.21875 61.382812 C 88.25 61.390625 88.261719 61.40625 88.253906 61.429688 C 88.15625 61.722656 84.792969 63.78125 83.21875 64.511719 C 80.601562 65.726562 77.304688 66.4375 74.351562 66.429688 C 73.523438 66.425781 70.984375 66.183594 68.703125 65.894531 C 64.222656 65.320312 61.3125 65.238281 59.085938 65.613281 C 58.347656 65.738281 57.664062 65.8125 57.570312 65.78125 C 56.972656 65.578125 61.476562 63.992188 64.027344 63.507812 C 66.167969 63.101562 69.367188 62.9375 73.230469 63.035156 C 79.710938 63.199219 83.945312 62.746094 87.582031 61.511719 C 87.882812 61.410156 88.128906 61.363281 88.21875 61.382812 Z M 55.40625 57.457031 C 56.054688 57.675781 56.621094 58.539062 56.773438 59.550781 C 56.886719 60.304688 56.835938 60.667969 56.488281 61.703125 C 56.125 62.773438 55.957031 63.054688 55.289062 63.71875 C 54.777344 64.226562 54.402344 64.46875 54.1875 64.429688 C 53.660156 64.328125 53.035156 63.320312 52.851562 62.277344 C 52.460938 60.03125 54.0625 57.003906 55.40625 57.457031 Z M 55.824219 59.0625 C 55.574219 58.980469 55.488281 59.058594 55.367188 59.476562 C 55.285156 59.757812 55.269531 60.125 55.335938 60.289062 C 55.464844 60.632812 55.703125 60.671875 56.03125 60.402344 C 56.359375 60.136719 56.214844 59.195312 55.824219 59.0625 Z M 65.574219 78.90625 C 65.71875 79.195312 63.085938 81.019531 61.578125 81.675781 C 60.929688 81.953125 59.507812 82.386719 58.414062 82.632812 C 54.832031 83.445312 53.691406 83.789062 51.183594 84.796875 C 48.160156 86.015625 46.441406 86.476562 43.140625 86.949219 C 41.746094 87.148438 40.324219 87.386719 39.988281 87.476562 C 39.085938 87.714844 39.289062 87.367188 40.730469 86.230469 C 42.417969 84.894531 45.277344 83.539062 47.792969 82.878906 C 48.941406 82.578125 51.972656 82.03125 54.539062 81.664062 C 59.527344 80.949219 61.671875 80.449219 64.039062 79.449219 C 64.859375 79.101562 65.550781 78.859375 65.574219 78.90625 Z M 65.574219 78.90625 " fill-opacity="1" fill-rule="nonzero"/></g></g></g></svg>